<svg xmlns="http://www.w3.org/2000/svg" width="560" height="400" viewBox="0 0 560 400" role="img" aria-label="Phụ kiện"><defs><linearGradient id="bg" x2="1" y2="1"><stop stop-color="#f8fafc"/><stop offset="1" stop-color="#8a78cf" stop-opacity=".17"/></linearGradient><linearGradient id="metal" x2=".2" y2="1"><stop stop-color="#e2e7ed"/><stop offset=".5" stop-color="#9ca9ba"/><stop offset="1" stop-color="#dee5ec"/></linearGradient><linearGradient id="screen" x2="1" y2="1"><stop stop-color="#152b4a"/><stop offset="1" stop-color="#8a78cf"/></linearGradient><linearGradient id="body" x2="1" y2="1"><stop stop-color="#38495b"/><stop offset="1" stop-color="#172431"/></linearGradient><filter id="shadow" x="-30%" y="-30%" width="160%" height="170%"><feDropShadow dx="0" dy="14" stdDeviation="11" flood-color="#213849" flood-opacity=".19"/></filter></defs><rect width="560" height="400" rx="28" fill="url(#bg)"/><circle cx="446" cy="87" r="59" fill="#8a78cf" opacity=".07"/><circle cx="87" cy="317" r="79" fill="#8a78cf" opacity=".07"/><g transform="rotate(-8 280 210)" filter="url(#shadow)"><rect x="76" y="131" width="407" height="182" rx="18" fill="url(#body)"/><rect x="95" y="151" width="27" height="24" rx="4" fill="#8a78cf"/><rect x="128" y="151" width="27" height="24" rx="4" fill="#8a78cf"/><rect x="161" y="151" width="27" height="24" rx="4" fill="#8a78cf"/><rect x="194" y="151" width="27" height="24" rx="4" fill="#8a78cf"/><rect x="227" y="151" width="27" height="24" rx="4" fill="#8a78cf"/><rect x="260" y="151" width="27" height="24" rx="4" fill="#8a78cf"/><rect x="293" y="151" width="27" height="24" rx="4" fill="#8a78cf"/><rect x="326" y="151" width="27" height="24" rx="4" fill="#8a78cf"/><rect x="359" y="151" width="27" height="24" rx="4" fill="#8a78cf"/><rect x="392" y="151" width="27" height="24" rx="4" fill="#8a78cf"/><rect x="425" y="151" width="27" height="24" rx="4" fill="#8a78cf"/><rect x="95" y="182" width="27" height="24" rx="4" fill="#a6b4c8"/><rect x="128" y="182" width="27" height="24" rx="4" fill="#e1e7ef"/><rect x="161" y="182" width="27" height="24" rx="4" fill="#e1e7ef"/><rect x="194" y="182" width="27" height="24" rx="4" fill="#e1e7ef"/><rect x="227" y="182" width="27" height="24" rx="4" fill="#a6b4c8"/><rect x="260" y="182" width="27" height="24" rx="4" fill="#e1e7ef"/><rect x="293" y="182" width="27" height="24" rx="4" fill="#e1e7ef"/><rect x="326" y="182" width="27" height="24" rx="4" fill="#e1e7ef"/><rect x="359" y="182" width="27" height="24" rx="4" fill="#a6b4c8"/><rect x="392" y="182" width="27" height="24" rx="4" fill="#e1e7ef"/><rect x="425" y="182" width="27" height="24" rx="4" fill="#8a78cf"/><rect x="95" y="213" width="27" height="24" rx="4" fill="#a6b4c8"/><rect x="128" y="213" width="27" height="24" rx="4" fill="#e1e7ef"/><rect x="161" y="213" width="27" height="24" rx="4" fill="#e1e7ef"/><rect x="194" y="213" width="27" height="24" rx="4" fill="#e1e7ef"/><rect x="227" y="213" width="27" height="24" rx="4" fill="#a6b4c8"/><rect x="260" y="213" width="27" height="24" rx="4" fill="#e1e7ef"/><rect x="293" y="213" width="27" height="24" rx="4" fill="#e1e7ef"/><rect x="326" y="213" width="27" height="24" rx="4" fill="#e1e7ef"/><rect x="359" y="213" width="27" height="24" rx="4" fill="#a6b4c8"/><rect x="392" y="213" width="27" height="24" rx="4" fill="#e1e7ef"/><rect x="425" y="213" width="27" height="24" rx="4" fill="#8a78cf"/><rect x="95" y="244" width="27" height="24" rx="4" fill="#a6b4c8"/><rect x="128" y="244" width="27" height="24" rx="4" fill="#e1e7ef"/><rect x="161" y="244" width="27" height="24" rx="4" fill="#e1e7ef"/><rect x="194" y="244" width="27" height="24" rx="4" fill="#e1e7ef"/><rect x="227" y="244" width="27" height="24" rx="4" fill="#a6b4c8"/><rect x="260" y="244" width="27" height="24" rx="4" fill="#e1e7ef"/><rect x="293" y="244" width="27" height="24" rx="4" fill="#e1e7ef"/><rect x="326" y="244" width="27" height="24" rx="4" fill="#e1e7ef"/><rect x="359" y="244" width="27" height="24" rx="4" fill="#a6b4c8"/><rect x="392" y="244" width="27" height="24" rx="4" fill="#e1e7ef"/><rect x="425" y="244" width="27" height="24" rx="4" fill="#8a78cf"/><rect x="198" y="277" width="170" height="22" rx="5" fill="#dbe2eb"/></g></svg>