<svg xmlns="http://www.w3.org/2000/svg" width="560" height="400" viewBox="0 0 560 400" role="img" aria-label="Màn hình"><defs><linearGradient id="bg" x2="1" y2="1"><stop stop-color="#f8fafc"/><stop offset="1" stop-color="#55a8bb" stop-opacity=".17"/></linearGradient><linearGradient id="metal" x2=".2" y2="1"><stop stop-color="#e2e7ed"/><stop offset=".5" stop-color="#9ca9ba"/><stop offset="1" stop-color="#dee5ec"/></linearGradient><linearGradient id="screen" x2="1" y2="1"><stop stop-color="#152b4a"/><stop offset="1" stop-color="#55a8bb"/></linearGradient><linearGradient id="body" x2="1" y2="1"><stop stop-color="#38495b"/><stop offset="1" stop-color="#172431"/></linearGradient><filter id="shadow" x="-30%" y="-30%" width="160%" height="170%"><feDropShadow dx="0" dy="14" stdDeviation="11" flood-color="#213849" flood-opacity=".19"/></filter></defs><rect width="560" height="400" rx="28" fill="url(#bg)"/><circle cx="446" cy="87" r="59" fill="#55a8bb" opacity=".07"/><circle cx="87" cy="317" r="79" fill="#55a8bb" opacity=".07"/><g filter="url(#shadow)"><path d="M260 278 H300 L307 334 H253Z" fill="url(#metal)"/><path d="M206 335 H354 L369 347 H191Z" fill="#899cac"/><rect x="100.0" y="66" width="360" height="224" rx="12" fill="#263744"/><rect x="110.0" y="77" width="340" height="192" rx="4" fill="url(#screen)"/><path d="M110.0 223 Q265 91 450.0 177 V269 H110.0Z" fill="#55a8bb"/><path d="M110.0 250 Q300 163 450.0 204 V269 H110.0Z" fill="#fff" opacity=".18"/><circle cx="280" cy="280" r="3" fill="#a7bccc"/></g></svg>